<svg id="visual" viewBox="0 0 960 540" width="960" height="540" xmlns="http://www.w3.org/2000/svg" xmlns:xlink="http://www.w3.org/1999/xlink" version="1.1"><rect x="0" y="0" width="960" height="540" fill="#001220"></rect><path d="M0 361L22.8 355.7C45.7 350.3 91.3 339.7 137 333.8C182.7 328 228.3 327 274 336C319.7 345 365.3 364 411.2 372.7C457 381.3 503 379.7 548.8 373.3C594.7 367 640.3 356 686 350.2C731.7 344.3 777.3 343.7 823 350.2C868.7 356.7 914.3 370.3 937.2 377.2L960 384L960 541L937.2 541C914.3 541 868.7 541 823 541C777.3 541 731.7 541 686 541C640.3 541 594.7 541 548.8 541C503 541 457 541 411.2 541C365.3 541 319.7 541 274 541C228.3 541 182.7 541 137 541C91.3 541 45.7 541 22.8 541L0 541Z" fill="#fa7268"></path><path d="M0 387L22.8 389C45.7 391 91.3 395 137 396.3C182.7 397.7 228.3 396.3 274 393.3C319.7 390.3 365.3 385.7 411.2 385.3C457 385 503 389 548.8 387.5C594.7 386 640.3 379 686 373.3C731.7 367.7 777.3 363.3 823 373.2C868.7 383 914.3 407 937.2 419L960 431L960 541L937.2 541C914.3 541 868.7 541 823 541C777.3 541 731.7 541 686 541C640.3 541 594.7 541 548.8 541C503 541 457 541 411.2 541C365.3 541 319.7 541 274 541C228.3 541 182.7 541 137 541C91.3 541 45.7 541 22.8 541L0 541Z" fill="#ef5f67"></path><path d="M0 443L22.8 434.8C45.7 426.7 91.3 410.3 137 411.3C182.7 412.3 228.3 430.7 274 438.8C319.7 447 365.3 445 411.2 445.2C457 445.3 503 447.7 548.8 439.8C594.7 432 640.3 414 686 409.7C731.7 405.3 777.3 414.7 823 415.2C868.7 415.7 914.3 407.3 937.2 403.2L960 399L960 541L937.2 541C914.3 541 868.7 541 823 541C777.3 541 731.7 541 686 541C640.3 541 594.7 541 548.8 541C503 541 457 541 411.2 541C365.3 541 319.7 541 274 541C228.3 541 182.7 541 137 541C91.3 541 45.7 541 22.8 541L0 541Z" fill="#e34c67"></path><path d="M0 455L22.8 452.7C45.7 450.3 91.3 445.7 137 447.3C182.7 449 228.3 457 274 464.5C319.7 472 365.3 479 411.2 481C457 483 503 480 548.8 477.8C594.7 475.7 640.3 474.3 686 471.2C731.7 468 777.3 463 823 465.3C868.7 467.7 914.3 477.3 937.2 482.2L960 487L960 541L937.2 541C914.3 541 868.7 541 823 541C777.3 541 731.7 541 686 541C640.3 541 594.7 541 548.8 541C503 541 457 541 411.2 541C365.3 541 319.7 541 274 541C228.3 541 182.7 541 137 541C91.3 541 45.7 541 22.8 541L0 541Z" fill="#d53867"></path><path d="M0 484L22.8 487.8C45.7 491.7 91.3 499.3 137 502.3C182.7 505.3 228.3 503.7 274 503.7C319.7 503.7 365.3 505.3 411.2 503.5C457 501.7 503 496.3 548.8 497.3C594.7 498.3 640.3 505.7 686 507C731.7 508.3 777.3 503.7 823 500.5C868.7 497.3 914.3 495.7 937.2 494.8L960 494L960 541L937.2 541C914.3 541 868.7 541 823 541C777.3 541 731.7 541 686 541C640.3 541 594.7 541 548.8 541C503 541 457 541 411.2 541C365.3 541 319.7 541 274 541C228.3 541 182.7 541 137 541C91.3 541 45.7 541 22.8 541L0 541Z" fill="#c62368"></path></svg>