<svg id="visual" viewBox="0 0 900 600" width="900" height="600" xmlns="http://www.w3.org/2000/svg" xmlns:xlink="http://www.w3.org/1999/xlink" version="1.1"><path d="M0 67L13.7 69C27.3 71 54.7 75 82 95C109.3 115 136.7 151 163.8 153C191 155 218 123 245.2 113C272.3 103 299.7 115 327 127C354.3 139 381.7 151 409 143C436.3 135 463.7 107 491 109C518.3 111 545.7 143 573 170C600.3 197 627.7 219 654.8 223C682 227 709 213 736.2 209C763.3 205 790.7 211 818 208C845.3 205 872.7 193 886.3 187L900 181L900 0L886.3 0C872.7 0 845.3 0 818 0C790.7 0 763.3 0 736.2 0C709 0 682 0 654.8 0C627.7 0 600.3 0 573 0C545.7 0 518.3 0 491 0C463.7 0 436.3 0 409 0C381.7 0 354.3 0 327 0C299.7 0 272.3 0 245.2 0C218 0 191 0 163.8 0C136.7 0 109.3 0 82 0C54.7 0 27.3 0 13.7 0L0 0Z" fill="#18438b"></path><path d="M0 169L13.7 171C27.3 173 54.7 177 82 190C109.3 203 136.7 225 163.8 217C191 209 218 171 245.2 159C272.3 147 299.7 161 327 176C354.3 191 381.7 207 409 208C436.3 209 463.7 195 491 204C518.3 213 545.7 245 573 264C600.3 283 627.7 289 654.8 293C682 297 709 299 736.2 296C763.3 293 790.7 285 818 279C845.3 273 872.7 269 886.3 267L900 265L900 179L886.3 185C872.7 191 845.3 203 818 206C790.7 209 763.3 203 736.2 207C709 211 682 225 654.8 221C627.7 217 600.3 195 573 168C545.7 141 518.3 109 491 107C463.7 105 436.3 133 409 141C381.7 149 354.3 137 327 125C299.7 113 272.3 101 245.2 111C218 121 191 153 163.8 151C136.7 149 109.3 113 82 93C54.7 73 27.3 69 13.7 67L0 65Z" fill="#0c3370"></path><path d="M0 259L13.7 265C27.3 271 54.7 283 82 300C109.3 317 136.7 339 163.8 334C191 329 218 297 245.2 281C272.3 265 299.7 265 327 265C354.3 265 381.7 265 409 270C436.3 275 463.7 285 491 304C518.3 323 545.7 351 573 358C600.3 365 627.7 351 654.8 353C682 355 709 373 736.2 381C763.3 389 790.7 387 818 373C845.3 359 872.7 333 886.3 320L900 307L900 263L886.3 265C872.7 267 845.3 271 818 277C790.7 283 763.3 291 736.2 294C709 297 682 295 654.8 291C627.7 287 600.3 281 573 262C545.7 243 518.3 211 491 202C463.7 193 436.3 207 409 206C381.7 205 354.3 189 327 174C299.7 159 272.3 145 245.2 157C218 169 191 207 163.8 215C136.7 223 109.3 201 82 188C54.7 175 27.3 171 13.7 169L0 167Z" fill="#002357"></path><path d="M0 469L13.7 480C27.3 491 54.7 513 82 516C109.3 519 136.7 503 163.8 506C191 509 218 531 245.2 524C272.3 517 299.7 481 327 459C354.3 437 381.7 429 409 433C436.3 437 463.7 453 491 461C518.3 469 545.7 469 573 464C600.3 459 627.7 449 654.8 460C682 471 709 503 736.2 515C763.3 527 790.7 519 818 505C845.3 491 872.7 471 886.3 461L900 451L900 305L886.3 318C872.7 331 845.3 357 818 371C790.7 385 763.3 387 736.2 379C709 371 682 353 654.8 351C627.7 349 600.3 363 573 356C545.7 349 518.3 321 491 302C463.7 283 436.3 273 409 268C381.7 263 354.3 263 327 263C299.7 263 272.3 263 245.2 279C218 295 191 327 163.8 332C136.7 337 109.3 315 82 298C54.7 281 27.3 269 13.7 263L0 257Z" fill="#00204c"></path><path d="M0 601L13.7 601C27.3 601 54.7 601 82 601C109.3 601 136.7 601 163.8 601C191 601 218 601 245.2 601C272.3 601 299.7 601 327 601C354.3 601 381.7 601 409 601C436.3 601 463.7 601 491 601C518.3 601 545.7 601 573 601C600.3 601 627.7 601 654.8 601C682 601 709 601 736.2 601C763.3 601 790.7 601 818 601C845.3 601 872.7 601 886.3 601L900 601L900 449L886.3 459C872.7 469 845.3 489 818 503C790.7 517 763.3 525 736.2 513C709 501 682 469 654.8 458C627.7 447 600.3 457 573 462C545.7 467 518.3 467 491 459C463.7 451 436.3 435 409 431C381.7 427 354.3 435 327 457C299.7 479 272.3 515 245.2 522C218 529 191 507 163.8 504C136.7 501 109.3 517 82 514C54.7 511 27.3 489 13.7 478L0 467Z" fill="#001c41"></path></svg>